<svg width="16" height="16" viewBox="0 0 16 16" fill="none" xmlns="http://www.w3.org/2000/svg">
<path d="M12.1666 10.0553V15.0553M9.66659 12.5553H14.6666M2.99992 6.72192H4.66659C5.58706 6.72192 6.33325 5.97573 6.33325 5.05526V3.38859C6.33325 2.46812 5.58706 1.72192 4.66659 1.72192H2.99992C2.07944 1.72192 1.33325 2.46812 1.33325 3.38859V5.05526C1.33325 5.97573 2.07944 6.72192 2.99992 6.72192ZM11.3333 6.72192H12.9999C13.9204 6.72192 14.6666 5.97573 14.6666 5.05526V3.38859C14.6666 2.46812 13.9204 1.72192 12.9999 1.72192H11.3333C10.4128 1.72192 9.66659 2.46812 9.66659 3.38859V5.05526C9.66659 5.97573 10.4128 6.72192 11.3333 6.72192ZM2.99992 15.0553H4.66659C5.58706 15.0553 6.33325 14.3091 6.33325 13.3886V11.7219C6.33325 10.8014 5.58706 10.0553 4.66659 10.0553H2.99992C2.07944 10.0553 1.33325 10.8014 1.33325 11.7219V13.3886C1.33325 14.3091 2.07944 15.0553 2.99992 15.0553Z" stroke="#6159E6" style="stroke:#6159E6;stroke:color(display-p3 0.3818 0.3506 0.9017);stroke-opacity:1;" stroke-width="1.5" stroke-linecap="round" stroke-linejoin="round"/>
</svg>
