<svg width="61" height="62" viewBox="0 0 61 62" fill="none" xmlns="http://www.w3.org/2000/svg">
<g filter="url(#filter0_i_52_1277)">
<path d="M30.6279 0C46.202 5.78944e-05 59.0598 11.6243 61.001 26.6699L27.8662 12.9062L27.8633 12.9092L33.2139 16.2812C43.5993 24.7406 41.872 36.0393 55.4307 42.1494C56.4274 42.5989 57.432 43.0349 58.4424 43.4609C58.0701 44.2665 57.6649 45.0535 57.2266 45.8193L50.5186 43.1055L48.9756 47.3809L54.7568 49.4912C53.6428 50.9141 52.4048 52.2346 51.0605 53.4395L45.165 51.5176L40.7422 54.4551L35.8389 56.4365L43.9883 58.1934C39.9505 60.154 35.418 61.2549 30.6279 61.2549C13.7129 61.2549 0.000223697 47.5429 0 30.6279C0 13.7127 13.7127 0 30.6279 0ZM33.3799 20.4609C17.4108 19.7963 10.1306 40.8496 21.7441 51.3887C31.7257 60.4514 46.654 53.8547 48.9756 41.3311L44.1084 37.4502C44.9782 48.9233 30.452 55.2205 23.3311 45.5146C16.3418 35.9864 25.8422 21.8032 37.3643 26.4248L33.3799 20.4609ZM39.6621 41.126C42.4423 34.2267 35.6911 27.2045 28.7949 30.7168V30.7158L28.792 30.7188C28.793 30.7182 28.7939 30.7173 28.7949 30.7168C29.3095 31.4269 30.253 31.2709 30.7031 32.3213C31.9249 35.1604 28.8807 37.5209 26.792 35.6221C26.2197 35.1014 26.3081 34.3116 25.7324 34.085C25.3526 35.5091 23.9622 37.9135 25.417 38.9824L26.1182 37.9717C28.3877 37.4755 27.7084 39.2856 27.9473 40.2871C28.3118 41.8062 30.9335 43.558 32.4648 43.7295C32.0697 44.3206 31.8091 44.0632 31.3037 44.002C29.2763 43.76 26.4863 42.1924 25.7266 40.2109C25.16 40.1436 25.4603 40.8477 25.5645 41.1387C27.7943 47.3559 37.1507 47.3617 39.6621 41.126ZM23.9717 13.6348C21.9227 13.3162 16.0296 13.3106 13.9316 13.5557C12.8781 13.6782 11.9409 14.2233 11.7051 15.3105C11.5642 15.9571 11.3533 18.2038 11.3379 18.9238C11.2521 23.3832 12.6211 28.2349 15.9258 31.3252C17.2306 26.4892 21.1903 22.1768 25.8271 20.2441C27.5637 19.5213 29.1629 19.3619 30.875 18.8535C31.2884 18.7311 31.6806 18.9546 31.5459 18.3115C29.693 16.4004 26.6577 14.0514 23.9717 13.6348Z" fill="url(#paint0_linear_52_1277)" style=""/>
</g>
<defs>
<filter id="filter0_i_52_1277" x="0" y="0" width="61.001" height="62.48" filterUnits="userSpaceOnUse" color-interpolation-filters="sRGB">
<feFlood flood-opacity="0" result="BackgroundImageFix"/>
<feBlend mode="normal" in="SourceGraphic" in2="BackgroundImageFix" result="shape"/>
<feColorMatrix in="SourceAlpha" type="matrix" values="0 0 0 0 0 0 0 0 0 0 0 0 0 0 0 0 0 0 127 0" result="hardAlpha"/>
<feOffset dy="1.22511"/>
<feGaussianBlur stdDeviation="0.612554"/>
<feComposite in2="hardAlpha" operator="arithmetic" k2="-1" k3="1"/>
<feColorMatrix type="matrix" values="0 0 0 0 0 0 0 0 0 0 0 0 0 0 0 0 0 0 0.2 0"/>
<feBlend mode="normal" in2="shape" result="effect1_innerShadow_52_1277"/>
</filter>
<linearGradient id="paint0_linear_52_1277" x1="30.5005" y1="0" x2="30.5005" y2="61.2549" gradientUnits="userSpaceOnUse">
<stop stop-color="#C23A32" style="stop-color:#C23A32;stop-color:color(display-p3 0.7608 0.2275 0.1961);stop-opacity:1;"/>
<stop offset="1" stop-color="#344BA0" style="stop-color:#344BA0;stop-color:color(display-p3 0.2039 0.2941 0.6275);stop-opacity:1;"/>
</linearGradient>
</defs>
</svg>
