<svg width="166" height="62" viewBox="0 0 166 62" fill="none" xmlns="http://www.w3.org/2000/svg">
<g filter="url(#filter0_i_52_1249)">
<path d="M31.6719 0C47.28 0 60.1662 11.6498 62.1113 26.7285L28.9043 12.9346L28.9014 12.9375L34.2637 16.3174C44.6719 24.7951 42.9411 36.1177 56.5293 42.2412C57.5283 42.6917 58.5352 43.1286 59.5479 43.5557C59.1746 44.3633 58.7677 45.1521 58.3281 45.9199L51.6064 43.2002L50.0596 47.4854L55.8525 49.5996C54.7362 51.0254 53.4964 52.3494 52.1494 53.5566L46.2412 51.6309L41.8086 54.5742L36.8945 56.5605L45.0605 58.3203C41.0142 60.2849 36.4721 61.3887 31.6719 61.3887C14.72 61.3886 0.977665 47.6462 0.977539 30.6943C0.977539 13.7424 14.7199 3.505e-05 31.6719 0ZM34.4297 20.5068C18.4259 19.841 11.1303 40.9401 22.7695 51.502C32.7728 60.5842 47.733 53.9727 50.0596 41.4219L45.1826 37.5332C46.0542 49.031 31.4958 55.3417 24.3594 45.6152C17.355 36.0663 26.8758 21.852 38.4229 26.4834L34.4297 20.5068ZM40.7256 41.2158C43.5117 34.3016 36.746 27.2644 29.835 30.7842V30.7832L29.832 30.7861C29.8331 30.7856 29.8339 30.7847 29.835 30.7842C30.3507 31.4956 31.296 31.3392 31.7471 32.3916C32.9718 35.237 29.9205 37.6032 27.8271 35.7002C27.2536 35.1784 27.3426 34.3863 26.7656 34.1592C26.385 35.5864 24.9916 37.9961 26.4492 39.0674L27.1523 38.0547C29.4266 37.5575 28.7451 39.3712 28.9844 40.375C29.3496 41.8973 31.9769 43.653 33.5117 43.8252C33.1158 44.4173 32.855 44.16 32.3486 44.0986C30.3168 43.8561 27.5212 42.2845 26.7598 40.2988C26.1919 40.2313 26.4923 40.9369 26.5967 41.2285C28.8312 47.4595 38.2087 47.4652 40.7256 41.2158ZM25.001 13.665C22.9477 13.3458 17.0424 13.3395 14.9395 13.585C13.8836 13.7077 12.9444 14.2543 12.708 15.3438C12.5668 15.9914 12.3542 18.2445 12.3389 18.9658C12.2529 23.4349 13.6256 28.2965 16.9375 31.3936C18.2452 26.5472 22.2135 22.2259 26.8604 20.2891C28.6006 19.5647 30.2032 19.405 31.9189 18.8955C32.3333 18.7727 32.7269 18.9961 32.5918 18.3516C30.7349 16.4363 27.6928 14.0826 25.001 13.665Z" fill="url(#paint0_linear_52_1249)" style=""/>
</g>
<g filter="url(#filter1_d_52_1249)">
<path d="M82.1394 37.9486C74.1205 37.9486 69.1519 32.3852 69.1519 23.4072V23.3688C69.1519 14.3907 74.1013 8.84656 82.1394 8.84656C88.7003 8.84656 93.6114 13.0287 94.1485 18.8798V19.11H88.5085V18.9757C87.9138 15.8679 85.439 13.7576 82.1394 13.7576C77.7846 13.7576 75.0797 17.4218 75.0797 23.3688V23.4072C75.0797 29.3542 77.7846 33.0375 82.1586 33.0375C85.4774 33.0375 87.8754 31.0999 88.4893 28.1456L88.5276 27.9921H94.1677L94.1485 28.2031C93.5538 33.9967 88.8154 37.9486 82.1394 37.9486ZM106.546 37.9486C98.5271 37.9486 93.5584 32.3852 93.5584 23.4072V23.3688C93.5584 14.3907 98.5079 8.84656 106.546 8.84656C113.107 8.84656 118.018 13.0287 118.555 18.8798V19.11H112.915V18.9757C112.32 15.8679 109.846 13.7576 106.546 13.7576C102.191 13.7576 99.4863 17.4218 99.4863 23.3688V23.4072C99.4863 29.3542 102.191 33.0375 106.565 33.0375C109.884 33.0375 112.282 31.0999 112.896 28.1456L112.934 27.9921H118.574L118.555 28.2031C117.96 33.9967 113.222 37.9486 106.546 37.9486ZM125.332 37.2388V14.3332H117.025V9.55637H139.432V14.3332H131.125V37.2388H125.332ZM147.091 37.2388L137.863 9.55637H144.367L150.486 30.793H150.832L156.932 9.55637H163.455L154.227 37.2388H147.091Z" fill="url(#paint1_linear_52_1249)" style=""/>
</g>
<path d="M69.0999 52.1499V42.6341H72.8522C74.8041 42.6341 76.0175 43.7683 76.0175 45.5356V45.5488C76.0175 46.8282 75.3317 47.8701 74.1711 48.2592L76.3077 52.1499H74.5997L72.6609 48.49H70.5771V52.1499H69.0999ZM70.5771 47.2898H72.7071C73.8413 47.2898 74.5008 46.6699 74.5008 45.5884V45.5752C74.5008 44.5201 73.8018 43.8738 72.6609 43.8738H70.5771V47.2898ZM80.2588 52.3807C78.109 52.3807 76.7308 51.2926 76.5989 49.6902L76.5923 49.6044H78.0431L78.0497 49.677C78.1288 50.5409 79.0454 51.0948 80.3182 51.0948C81.5316 51.0948 82.3954 50.4881 82.3954 49.6044V49.5978C82.3954 48.8659 81.8811 48.3911 80.6215 48.1207L79.5796 47.8965C77.6474 47.4876 76.8165 46.5908 76.8165 45.1861V45.1795C76.8231 43.5375 78.2475 42.4033 80.2654 42.4033C82.2833 42.4033 83.6022 43.5441 83.7077 45.0213L83.7143 45.1136H82.2833L82.2701 45.0279C82.1448 44.2497 81.3997 43.6826 80.2456 43.6892C79.1312 43.6892 78.3069 44.2102 78.3069 45.107V45.1136C78.3069 45.8192 78.808 46.2808 80.0412 46.5446L81.0765 46.7754C83.0747 47.204 83.8924 48.0086 83.8924 49.4198V49.4264C83.8924 51.2465 82.4746 52.3807 80.2588 52.3807ZM85.6937 52.2488C85.1464 52.2488 84.7243 51.8268 84.7243 51.2926C84.7243 50.7519 85.1464 50.3298 85.6937 50.3298C86.2411 50.3298 86.6565 50.7519 86.6565 51.2926C86.6565 51.8268 86.2411 52.2488 85.6937 52.2488ZM94.4533 52.3807C91.8089 52.3807 90.1603 50.4683 90.1603 47.4019V47.3887C90.1603 44.3157 91.8023 42.4033 94.4467 42.4033C96.5437 42.4033 98.1528 43.7288 98.4034 45.6214L98.3968 45.6543H96.9328V45.6346C96.6559 44.4673 95.6997 43.709 94.4467 43.709C92.7387 43.709 91.6704 45.1268 91.6704 47.3887V47.4019C91.6704 49.6572 92.7387 51.075 94.4533 51.075C95.7128 51.075 96.6559 50.4024 96.9262 49.3275L96.9394 49.3011H98.4034V49.3407C98.1264 51.1673 96.5767 52.3807 94.4533 52.3807ZM99.8486 43.709C99.354 43.709 98.9518 43.3067 98.9518 42.8187C98.9518 42.3241 99.354 41.9219 99.8486 41.9219C100.337 41.9219 100.745 42.3241 100.745 42.8187C100.745 43.3067 100.337 43.709 99.8486 43.709ZM99.1298 52.1499V44.9883H100.554V52.1499H99.1298ZM104.261 52.1961C102.685 52.1961 102.039 51.6421 102.039 50.2639V46.116H100.918V44.9883H102.039V43.1814H103.496V44.9883H105.033V46.116H103.496V49.921C103.496 50.6925 103.787 51.0091 104.492 51.0091C104.71 51.0091 104.835 51.0025 105.033 50.9827V52.1235C104.802 52.1631 104.538 52.1961 104.261 52.1961ZM105.621 52.1499V44.9883H107.052V46.0698H107.157C107.415 45.3114 108.081 44.863 109.037 44.863C109.268 44.863 109.518 44.896 109.663 44.929V46.2478C109.406 46.1951 109.162 46.1621 108.892 46.1621C107.797 46.1621 107.052 46.8348 107.052 47.8701V52.1499H105.621ZM111.86 52.2686C110.495 52.2686 109.486 51.4377 109.486 50.1386V50.1254C109.486 48.8461 110.449 48.1009 112.157 47.9954L114.096 47.8833V47.2502C114.096 46.4655 113.601 46.0302 112.632 46.0302C111.841 46.0302 111.32 46.3204 111.148 46.8282L111.142 46.8545H109.763L109.77 46.8084C109.941 45.6346 111.069 44.8498 112.698 44.8498C114.498 44.8498 115.514 45.7467 115.514 47.2502V52.1499H114.096V51.1344H113.984C113.562 51.8597 112.81 52.2686 111.86 52.2686ZM110.911 50.0792C110.911 50.7387 111.471 51.1278 112.243 51.1278C113.311 51.1278 114.096 50.4287 114.096 49.5055V48.8922L112.348 49.0043C111.359 49.0637 110.911 49.4198 110.911 50.066V50.0792ZM119.228 52.1499V42.6341H120.706V46.6567H125.592V42.6341H127.063V52.1499H125.592V47.936H120.706V52.1499H119.228ZM130.592 52.2884C128.976 52.2884 128.139 51.319 128.139 49.6242V44.9883H129.57V49.2879C129.57 50.4749 130.005 51.0618 131.053 51.0618C132.201 51.0618 132.814 50.343 132.814 49.189V44.9883H134.239V52.1499H132.814V51.0684H132.702C132.359 51.84 131.634 52.2884 130.592 52.2884ZM137.827 52.2884C136.099 52.2884 135.005 51.4773 134.866 50.2771V50.2705H136.297L136.304 50.2771C136.482 50.8178 137.003 51.1805 137.853 51.1805C138.737 51.1805 139.35 50.7783 139.35 50.1913V50.1782C139.35 49.7297 139.014 49.4264 138.183 49.2351L137.042 48.9714C135.69 48.6614 135.064 48.0481 135.064 46.9996V46.993C135.064 45.7467 136.225 44.8498 137.847 44.8498C139.482 44.8498 140.531 45.6675 140.656 46.8348V46.8414H139.291V46.8282C139.152 46.327 138.645 45.9511 137.84 45.9511C137.055 45.9511 136.488 46.3402 136.488 46.9139V46.9271C136.488 47.3755 136.818 47.6525 137.623 47.8437L138.757 48.1009C140.135 48.424 140.795 49.0109 140.795 50.0463V50.0595C140.795 51.3849 139.528 52.2884 137.827 52.2884ZM143.387 52.2686C142.022 52.2686 141.013 51.4377 141.013 50.1386V50.1254C141.013 48.8461 141.976 48.1009 143.684 47.9954L145.623 47.8833V47.2502C145.623 46.4655 145.128 46.0302 144.159 46.0302C143.367 46.0302 142.846 46.3204 142.675 46.8282L142.668 46.8545H141.29L141.297 46.8084C141.468 45.6346 142.596 44.8498 144.225 44.8498C146.025 44.8498 147.041 45.7467 147.041 47.2502V52.1499H145.623V51.1344H145.511C145.089 51.8597 144.337 52.2686 143.387 52.2686ZM142.438 50.0792C142.438 50.7387 142.998 51.1278 143.77 51.1278C144.838 51.1278 145.623 50.4287 145.623 49.5055V48.8922L143.875 49.0043C142.886 49.0637 142.438 49.4198 142.438 50.066V50.0792ZM150.589 52.2686C148.789 52.2686 147.622 50.8244 147.622 48.5757V48.5625C147.622 46.294 148.769 44.863 150.589 44.863C151.572 44.863 152.409 45.351 152.792 46.1226H152.904V42.1791H154.328V52.1499H152.904V51.0222H152.792C152.377 51.807 151.592 52.2686 150.589 52.2686ZM150.998 51.0486C152.192 51.0486 152.924 50.1056 152.924 48.5757V48.5625C152.924 47.0326 152.185 46.0896 150.998 46.0896C149.798 46.0896 149.079 47.026 149.079 48.5625V48.5757C149.079 50.1122 149.798 51.0486 150.998 51.0486ZM157.343 52.2686C155.978 52.2686 154.969 51.4377 154.969 50.1386V50.1254C154.969 48.8461 155.932 48.1009 157.64 47.9954L159.579 47.8833V47.2502C159.579 46.4655 159.084 46.0302 158.115 46.0302C157.323 46.0302 156.802 46.3204 156.631 46.8282L156.624 46.8545H155.246L155.253 46.8084C155.424 45.6346 156.552 44.8498 158.181 44.8498C159.981 44.8498 160.997 45.7467 160.997 47.2502V52.1499H159.579V51.1344H159.467C159.045 51.8597 158.293 52.2686 157.343 52.2686ZM156.394 50.0792C156.394 50.7387 156.954 51.1278 157.726 51.1278C158.794 51.1278 159.579 50.4287 159.579 49.5055V48.8922L157.831 49.0043C156.842 49.0637 156.394 49.4198 156.394 50.066V50.0792Z" fill="url(#paint2_linear_52_1249)" style=""/>
<defs>
<filter id="filter0_i_52_1249" x="0.977539" y="0" width="61.1338" height="62.6164" filterUnits="userSpaceOnUse" color-interpolation-filters="sRGB">
<feFlood flood-opacity="0" result="BackgroundImageFix"/>
<feBlend mode="normal" in="SourceGraphic" in2="BackgroundImageFix" result="shape"/>
<feColorMatrix in="SourceAlpha" type="matrix" values="0 0 0 0 0 0 0 0 0 0 0 0 0 0 0 0 0 0 127 0" result="hardAlpha"/>
<feOffset dy="1.22777"/>
<feGaussianBlur stdDeviation="0.613886"/>
<feComposite in2="hardAlpha" operator="arithmetic" k2="-1" k3="1"/>
<feColorMatrix type="matrix" values="0 0 0 0 0 0 0 0 0 0 0 0 0 0 0 0 0 0 0.2 0"/>
<feBlend mode="normal" in2="shape" result="effect1_innerShadow_52_1249"/>
</filter>
<filter id="filter1_d_52_1249" x="69.1519" y="8.84668" width="94.3027" height="29.7157" filterUnits="userSpaceOnUse" color-interpolation-filters="sRGB">
<feFlood flood-opacity="0" result="BackgroundImageFix"/>
<feColorMatrix in="SourceAlpha" type="matrix" values="0 0 0 0 0 0 0 0 0 0 0 0 0 0 0 0 0 0 127 0" result="hardAlpha"/>
<feOffset dy="0.613886"/>
<feComposite in2="hardAlpha" operator="out"/>
<feColorMatrix type="matrix" values="0 0 0 0 0.541176 0 0 0 0 0.160784 0 0 0 0 0.137255 0 0 0 1 0"/>
<feBlend mode="normal" in2="BackgroundImageFix" result="effect1_dropShadow_52_1249"/>
<feBlend mode="normal" in="SourceGraphic" in2="effect1_dropShadow_52_1249" result="shape"/>
</filter>
<linearGradient id="paint0_linear_52_1249" x1="31.5444" y1="0" x2="31.5444" y2="61.3887" gradientUnits="userSpaceOnUse">
<stop stop-color="#C23A32" style="stop-color:#C23A32;stop-color:color(display-p3 0.7608 0.2275 0.1961);stop-opacity:1;"/>
<stop offset="1" stop-color="#344BA0" style="stop-color:#344BA0;stop-color:color(display-p3 0.2039 0.2941 0.6275);stop-opacity:1;"/>
</linearGradient>
<linearGradient id="paint1_linear_52_1249" x1="116.022" y1="9.23877" x2="116.022" y2="37.2388" gradientUnits="userSpaceOnUse">
<stop stop-color="#D33934" style="stop-color:#D33934;stop-color:color(display-p3 0.8275 0.2235 0.2039);stop-opacity:1;"/>
<stop offset="1" stop-color="#5C1C18" style="stop-color:#5C1C18;stop-color:color(display-p3 0.3608 0.1079 0.0930);stop-opacity:1;"/>
</linearGradient>
<linearGradient id="paint2_linear_52_1249" x1="114.946" y1="42.1499" x2="114.946" y2="63.6794" gradientUnits="userSpaceOnUse">
<stop stop-color="#344BA0" style="stop-color:#344BA0;stop-color:color(display-p3 0.2039 0.2941 0.6275);stop-opacity:1;"/>
<stop offset="1" stop-color="#131B3A" style="stop-color:#131B3A;stop-color:color(display-p3 0.0739 0.1066 0.2275);stop-opacity:1;"/>
</linearGradient>
</defs>
</svg>
